<svg class="block w-full" xmlns="http://www.w3.org/2000/svg" xmlns:xlink="http://www.w3.org/1999/xlink" version="1.1" x="0px" y="0px" viewBox="0 0 1366.44 1072.37" style="enable-background: new 0 0 1366.44 1072.37;" xml:space="preserve"><style type="text/css">.gdyihbbmva-st0{fill:#fcfcfc}.gdyihbbmva-st1{fill:none;stroke:#000;stroke-width:30;stroke-miterlimit:10}.gdyihbbmva-st2{fill:none;stroke:#000;stroke-width:30;stroke-linecap:round;stroke-miterlimit:10}.gdyihbbmva-st3{fill:#e8b8d3}.gdyihbbmva-st4{fill:#fbdff3}.gdyihbbmva-st5{display:none;opacity:.5}.gdyihbbmva-st6{display:inline}.gdyihbbmva-st7{fill:#fff}.gdyihbbmva-st8{fill:#fcc}.gdyihbbmva-st9{fill:none;stroke:#fbc50f;stroke-width:9;stroke-linecap:round;stroke-miterlimit:10}.gdyihbbmva-st10{fill:none;stroke:#00b6d1;stroke-width:9;stroke-linecap:round;stroke-miterlimit:10}.gdyihbbmva-st11{fill:#fbc50f}.gdyihbbmva-st12{fill:#00b6d1}.gdyihbbmva-st13{fill:none;stroke:#000;stroke-width:16;stroke-linecap:round;stroke-miterlimit:10}.gdyihbbmva-st14{fill:none;stroke:#fbc50f;stroke-width:25;stroke-linecap:round;stroke-miterlimit:10}.gdyihbbmva-st15{fill:none;stroke:#00b6d1;stroke-width:25;stroke-linecap:round;stroke-miterlimit:10}.gdyihbbmva-st16{fill:none;stroke:#000;stroke-width:25;stroke-linecap:round;stroke-miterlimit:10}</style><g id="gdyihbbmva-Layer_3">
<polygon class="gdyihbbmva-st0" points="255.54,463.63 476.26,438.41 490.98,421.59 478.37,314.38 758.77,329.98 848.5,401.79 970.27,613.51    1045.5,587.66 1090.51,518.34 1090.51,385.85 1075.38,345.91 1027.03,329.98 1010.21,280.43 1058.56,251.34 1043.84,211.38    1054.35,167.23 1090.51,146.21 1134.24,169.33 1145.22,190.36 1195.43,146.21 1224.4,146.21 1262.47,174.42 1237.24,230.3    1285.91,228.52 1315.02,251.34 1306.61,305.2 1285.59,329.98 1289.79,379.86 1296.1,541.17 1281.39,679.54 1243.55,757.93    1214.12,797.87 1157.36,827.3 1145.22,846.22 1079.58,838.1 1116.16,936.62 1116.16,997.58 1104.81,1036.03 1116.16,1072.37    1073.51,1072.37 158.84,1072.37 158.84,1060.86 209.29,1036.03 184.07,1001.78 259.74,970.25 228.21,940.82 287.07,909.29    310.2,865.7 297.58,734.81 253.44,541.17  "></polygon>
</g>
<g id="gdyihbbmva-lineart">
<path d="M692.09,305.22c-70.16-10.71-141.15-14.12-211.98-9.33c-5.54,0.37-10.96,3.18-14.14,7.57c-0.08,0.11-0.18,0.2-0.29,0.27   c-6.27,3.97-8.58,11.01-7.41,18.83c4.48,29.97,7.39,63.25,8.44,95.58c0.02,0.68-0.54,1.24-1.22,1.22   c-73.74-1.88-147.93,9.48-217.68,33.46c-5.33,1.83-9.86,6.1-11.7,11.3c-0.01,0.03-0.02,0.05-0.03,0.08   c-1.15,2.27-1.88,4.85-2.13,7.66c-2.58,28.63,1.24,57.85,5.25,86.18c3.82,26.99,9.17,53.74,14.99,80.36   c5.84,26.68,12.17,53.26,17.96,79.95c2.85,13.14,5.58,26.31,8.05,39.53c1.23,6.59,2.4,13.19,3.49,19.8c0.49,3,0.97,6,1.43,9.01   c0.28,1.8,0.54,3.6,0.81,5.41c0.17,1.2,0.35,2.4,0.51,3.61c0.11,0.77,0.18,1.3,0.22,1.58c3.36,25.33,5.11,50.88,4.63,76.42   c-0.01,0.29-0.12,0.58-0.32,0.79c-5.44,5.94-11.19,11.58-17.3,16.84c-1.25,1.08-2.52,2.14-3.79,3.19   c-0.34,0.28-3.29,2.57-3.63,2.87c-0.02,0.02-0.04,0.04-0.07,0.06c-2.88,2.14-5.8,4.23-8.78,6.22c-6.41,4.28-13.07,8.2-19.93,11.72   c-3.43,1.76-6.93,3.38-10.43,4.99c-0.56,0.24-0.95,0.41-1.2,0.52c-0.79,0.32-1.57,0.64-2.36,0.95c-2.05,0.81-4.12,1.57-6.19,2.32   c-14.06,5.07-16.54,22.61-4.06,31.07c7.01,4.75,11.1,7.77,16.69,12.44c0.01,0,0.01,0.01,0.02,0.01c0.69,0.58,0.5,1.69-0.34,2.01   c-5.49,2.14-10.98,4.28-16.47,6.42l-39.96,15.57c-6.48,2.53-11.2,6.9-12.18,14.13c-0.82,6.07,2,14.26,8.12,16.94   c3.21,1.41,6.43,2.82,9.64,4.23c0.86,0.38,0.96,1.54,0.18,2.07c-9.31,6.27-18.2,13.17-26.65,20.63c-6.69,5.9-6.48,18.1,0,24.04   c7.14,6.55,16.9,6.29,24.04,0c8.39-7.39,13.53-11.37,23.16-17.64c8.87-5.78,18.15-10.87,27.73-15.37   c11.29-5.3,11.36-25.75-1.24-29.83c-0.13-2.95-0.02-0.43-0.15-3.38c12.46-4.71,25.24-9.07,37.25-14.7   c9.03-4.23,14.79-13.99,12.49-23.98c-1.73-7.53-7.35-12.5-12.81-17.51c-2.14-1.96-4.32-3.89-6.53-5.78   c-0.64-0.54-0.52-1.55,0.21-1.94c15.38-8.16,29.77-18.07,42.82-29.62c5.04-4.47,10.46-8.54,16.41-11.69   c5.34-2.82,8.81-8.26,9.15-14.92c5.68-111.14-33.73-217.28-50.93-325.7c-0.57-3.62-1.12-7.25-1.65-10.88   c-0.22-1.51-0.43-3.02-0.64-4.54c-0.17-1.2-0.17-1.21,0-0.02c-0.16-1.21-0.31-2.42-0.46-3.63c-0.95-7.57-1.76-15.16-2.42-22.76   c-1.06-12.28-1.78-24.6-1.41-36.91c0.02-0.51,0.35-0.95,0.83-1.11c67.27-21.73,134.47-30.96,205.29-28.24   c3.11,0.12,6.17-0.84,8.82-2.51c1.93-1.22,3.95-2.32,6.15-2.96c7.16-2.07,12.78-8.3,12.65-16.27   c-0.55-33.99-3.19-67.84-7.63-101.52c-0.09-0.69,0.42-1.31,1.11-1.34c29.5-1.55,59.05-1.76,88.57-0.55   c17,0.7,33.98,1.85,50.91,3.47c17.5,1.67,32.82,3.58,49.04,6.06c8.75,1.34,18.71-2.2,20.91-11.87   C705.81,318.03,701.49,306.66,692.09,305.22z"></path>
<path d="M565.37,608.99c-0.54-4.03-2.19-6.55-4.68-9.76c-1.36-1.75-2.72-3.51-4.08-5.26c-1.15-0.89-2.29-1.77-3.44-2.66   c-1.95-1.24-4.06-1.91-6.32-2.02c-3.61-0.48-7.69-0.03-10.84,2.02c-0.71,0.46-1.39,0.95-2.05,1.45c-0.24,0.12-0.48,0.24-0.71,0.37   c-2.62,1.53-4.82,3.71-6.47,6.24c-6.33,6.06-7.84,16.05-3.36,23.68c2.67,4.53,7.55,7.95,12.83,9.18   c5.72,2.75,12.53,2.79,18.23-0.54c4.74-2.77,8.07-7.6,9.37-12.9C565.29,615.68,565.83,612.46,565.37,608.99z"></path>
<path d="M706.17,518.03c-0.47-9.87-6.66-18.5-16.2-21.49c-8.18-2.57-17.05-0.25-23.2,5.6c-5.8,5.52-8.25,15.14-5.64,22.7   c2.08,6.01,6.5,10.82,12.09,13.28c6.24,3.75,14.17,4.16,21.11,0.62C701.74,534.96,706.56,526.31,706.17,518.03z"></path>
<circle class="gdyihbbmva-st1" cx="500.93" cy="623.79" r="150.21"></circle>
<path class="gdyihbbmva-st2" d="M575.33,493.5c-0.82-6.52-1.24-13.17-1.24-19.92c0-82.96,63.89-150.21,142.71-150.21   S859.5,390.62,859.5,473.58s-63.89,150.21-142.71,150.21c-18.57,0-36.31-3.73-52.59-10.53"></path>
<path d="M1332.48,276.98c0.57-17.67-6.56-35.4-19.16-47.8c-13.92-13.69-32.45-18.47-51.58-17.47c-0.79,0.04-1.58,0.08-2.37,0.13   c7.06-20.08,6.28-42.28-7.35-60.66c-11.53-15.54-29.32-25.23-48.75-25.95c-18.07-0.66-37.03,7.79-48.79,21.49   c-4.06,4.73-7.36,9.97-10.02,15.53c-1.75-2.94-3.73-5.76-5.96-8.44c-12.57-15.12-33.41-22.17-52.69-19.94   c-21.12,2.44-39.42,13.65-50.75,31.78c-10.37,16.59-13.6,38.42-6.3,56.81c2.97,7.48,7.16,14.16,12.3,19.83   c-14.81,4.77-28.15,12.92-38.08,26.44c-8.69,11.84-12.52,26.8-10.27,41.29c2.28,14.7,12.26,27,24.57,34.81   c14.65,9.29,32.55,11.3,49.58,10.22c10.49,37.23,14.31,75.37,11.29,114.19c-1.43,18.41-3.51,38.42-11.17,55.78   c-6.88,15.59-21.67,27.15-36.24,37.65c-18.07,13.03-37.03,24.78-56.66,35.29c-17.06-41.34-38.16-81.04-63.08-118.15   c-10.58-15.75-21.89-30.99-33.67-45.86c-5.55-7-18.32-6.23-24.04,0c-6.82,7.43-5.92,16.57,0,24.04c1.09,1.37,2.17,2.75,3.25,4.13   c0.1,0.13,0.77,0.99,1,1.29c0.39,0.5,0.77,1.01,1.16,1.51c2.3,3.02,4.58,6.06,6.83,9.12c4.67,6.35,9.22,12.79,13.66,19.3   c8.71,12.79,16.97,25.89,24.76,39.26c7.79,13.37,15.11,27.02,21.94,40.9c3.35,6.81,6.59,13.68,9.7,20.6   c1.56,3.46,3.08,6.94,4.58,10.42c-0.01-0.02,0.3,0.71,0.51,1.19c0.2,0.48,0.51,1.22,0.51,1.2c0.9,2.16,1.79,4.32,2.66,6.48   c6.57,16.24,12.47,32.75,17.73,49.46c2.67,8.47,11.95,14.77,20.91,11.87c8.5-2.75,14.74-11.83,11.87-20.91   c-3.04-9.63-6.31-19.2-9.77-28.69c0.3-0.13,0.6-0.26,0.89-0.42c19.69-10.37,38.71-21.98,56.86-34.86   c17.77-12.61,36.52-25.77,47.17-45.34c10.55-19.38,13.98-41.57,16.45-63.2c2.52-21.96,2.84-44.17,1-66.2   c-2.15-25.82-6.95-51.38-14.62-76.12c-1.63-5.24-5.95-9.15-11.05-10.28c-1.35-0.3-2.63-0.85-3.83-1.52c-2-1.1-4.25-1.68-6.61-1.46   c-7.7,0.7-16.72,1.22-23.64-0.2c-7.75-1.58-10.95-2.66-17.17-6.98c1.7,1.18-1.78-1.55-2.19-1.93c-1.07-1.02-2.14-2.09-3.08-3.25   c0.25,0.22-1.44-2.35-1.44-2.36c-0.39-0.68-0.75-1.39-1.09-2.1c-0.04-0.11-0.08-0.23-0.14-0.41c-0.42-1.28-0.79-2.58-1.06-3.91   c0.14,0.48-0.15-2.41-0.16-2.65c-0.01-0.94,0.02-1.87,0.09-2.8c0.02-0.26,0.04-0.47,0.06-0.66c0.1-0.2,0.81-3.33,0.95-3.81   c0.08-0.27,0.93-2.74,0.81-2.6c0.68-1.54,1.51-3.03,2.36-4.47c1.89-3.18,1.77-3.03,3.78-5.26c0.96-1.06,1.98-2.09,3.03-3.06   c1.31-1.2,1.75-1.67,1.88-1.84c0.15-0.08,0.43-0.25,0.93-0.58c3.13-2.07,6.37-4.01,9.83-5.5c4.17-1.8,12.5-3.86,18.57-4.87   c1.92-0.32,1.12-0.19,3.56-0.44c1.93-0.2,3.87-0.35,5.81-0.48c3.87-0.25,7.74-0.35,11.62-0.4c7.83-0.1,14.5-6.59,14.5-14.5   c0-4.66-2.39-8.96-5.99-11.65c-2.69-3.16-6.8-5.08-11.29-5.53c2.59,0.26-1.68-0.33-2.42-0.51c-1.4-0.34-2.76-0.77-4.12-1.24   c0.67,0.19-2.36-1.06-2.9-1.35c-1.66-0.9-3.25-1.9-4.8-2.98c-0.08-0.06-0.14-0.1-0.2-0.14c-0.07-0.06-0.13-0.12-0.22-0.19   c-0.54-0.46-1.08-0.92-1.6-1.41c-1.22-1.12-2.38-2.31-3.48-3.55c-0.12-0.13-0.76-0.91-1.13-1.35c-0.24-0.33-0.54-0.75-0.55-0.76   c-1.02-1.6-2.04-3.19-2.92-4.88c-0.39-0.74-0.78-1.51-1.12-2.29c-0.06-0.2-0.14-0.45-0.23-0.76c-0.41-1.36-0.86-2.7-1.19-4.09   c-0.22-0.91-0.41-1.83-0.57-2.76c-0.01-0.15-0.02-0.31-0.03-0.49c-0.1-1.93-0.18-3.85-0.1-5.78c0.03-0.72,0.1-1.44,0.15-2.16   c0.01-0.13,0.02-0.22,0.02-0.32c0.01-0.05,0.02-0.08,0.02-0.13c0.3-1.66,0.66-3.31,1.11-4.95c0.45-1.63,0.99-3.24,1.58-4.83   c0.02-0.05,0.03-0.09,0.05-0.13c0.47-1.02,0.98-2.03,1.51-3.02c0.81-1.5,1.67-2.96,2.61-4.38c0.4-0.61,0.82-1.21,1.25-1.8   c0.05-0.07,0.08-0.11,0.12-0.17c0.08-0.09,0.17-0.19,0.31-0.35c1.11-1.29,2.25-2.55,3.47-3.74c0.45-0.44,3.15-2.79,2.97-2.72   c2.4-1.81,5.05-3.31,7.76-4.62c-0.5,0.28,2.56-0.98,3.09-1.15c1.83-0.59,3.68-1.08,5.56-1.47c0.2-0.04,1.23-0.22,1.78-0.33   c0.36-0.04,0.73-0.09,0.77-0.09c1.68-0.1,3.34-0.2,5.02-0.19c1.47,0.01,2.93,0.1,4.4,0.23c-0.55,0,3.01,0.58,3.75,0.76   c1.6,0.4,3.17,0.9,4.72,1.47c0.01,0.05,1.9,0.88,2.34,1.12c1.51,0.81,2.99,1.73,4.39,2.73c0.07,0.07,0.14,0.13,0.25,0.22   c0.93,0.82,1.84,1.66,2.7,2.55c0.52,0.54,1.01,1.1,1.51,1.65c0.45,0.5,0.36,0.31,0.32,0.24c0.04,0.06,0.18,0.28,0.6,0.91   c1.11,1.64,2.15,3.31,3.07,5.06c0.41,0.78,0.8,1.57,1.17,2.37c0.12,0.28,0.3,0.71,0.39,0.97c0.65,1.9,1.28,3.8,1.79,5.74   c0.51,1.96,0.91,3.94,1.26,5.93c0.53,3.02,0.16,1.33,0.09,0.68c0.13,1.27,0.23,2.54,0.3,3.81c0.24,4.31,0.09,8.61-0.31,12.91   c-0.58,6.25,4.91,12.41,10.65,13.98c1.33,0.36,2.79,0.51,4.28,0.44c2.16-0.1,4.32,0.13,6.47,0.42c0.57,0.08,1.15,0.12,1.74,0.12   c7.95,0,14.39-6.64,14.5-14.5c0.2-14.25,2.37-30.31,9.47-41.89c2.31-3.77,6.92-8.32,10.61-10.63c1.28-0.8,2.61-1.49,3.93-2.22   c0.38-0.21,0.66-0.37,0.88-0.49c0.62-0.25,1.25-0.47,1.88-0.69c1.42-0.49,2.86-0.92,4.32-1.28c0.71-0.17,4.89-0.85,2.8-0.63   c7.33-0.75,9.96-0.29,16.84,2.24c-1.9-0.7,2.17,1.05,2.7,1.34c1.33,0.71,2.62,1.49,3.87,2.32c0.49,0.32,0.98,0.65,1.45,1   c0.13,0.12,0.31,0.28,0.64,0.56c1.18,1.03,2.32,2.11,3.39,3.25c0.62,0.65,1.25,1.35,1.83,2.06c0.07,0.11,0.16,0.25,0.3,0.46   c0.85,1.27,1.66,2.56,2.39,3.9c1.34,2.46,2.24,4.89,3.12,8.71c0.18,0.79,0.35,1.59,0.5,2.4c-0.06-0.33-0.17-1.56,0.05,0.19   c0.21,1.69,0.27,3.41,0.29,5.12c0.02,1.59-0.04,3.2-0.15,4.79c-0.19,2.57-0.09,1.64-0.65,4.2c-1.72,7.94-3.75,12.21-8.32,19   c-0.44,0.66-0.9,1.3-1.36,1.94c-0.17,0.24-0.28,0.4-0.36,0.51c-0.07,0.09-0.15,0.19-0.26,0.32c-2.17,2.71-4.6,5.22-7.01,7.67   c-1.8,1.83-3.81,3.42-5.82,5.02c-4.63,3.68-5.28,10.48-3.16,15.83c0.27,6.02,5.2,11.87,10.82,13.41c8.19,2.25,15-2.79,17.84-10.13   c-0.71,1.83,0.86-1.26,1.56-2.51c0.1,0.03,1.67-1.74,2.43-2.55c0.04,0.09,2.04-1.3,2.98-1.9c-0.1,0.2,3.91-1.25,4.58-1.39   c7.32-1.61,18.23-2.43,26.89-1.29c0.71,0.09,3.73,0.73,5.15,1.13c1.06,0.29,2.1,0.63,3.13,1c1.63,0.61,1.8,0.68,0.53,0.22   c1.29,0.65,2.56,1.32,3.79,2.06c0.43,0.26,3.6,2.65,3.28,2.29c1.33,1.15,2.6,2.36,3.8,3.65c0.61,0.65,1.19,1.33,1.76,2.01   c0.13,0.18,0.29,0.41,0.5,0.7c1.06,1.63,2.11,3.24,3.02,4.96c0.42,0.79,0.82,1.59,1.19,2.4c0.08,0.21,0.17,0.45,0.29,0.76   c0.61,1.84,1.2,3.67,1.64,5.56c0.19,0.84,0.35,1.69,0.5,2.54c0.02,0.26,0.06,0.68,0.13,1.29c0.09,2.11,0.17,4.2,0.08,6.31   c-0.04,0.94-0.12,1.88-0.21,2.82c-0.05,0.27-0.11,0.64-0.2,1.16c-1.78,8.3-3.57,12.74-8.36,19.76   c-7.88,11.54-22.37,18.67-37.53,21.48c-7.7,1.43-12.07,10.75-10.13,17.84c2.22,8.09,10.11,11.56,17.84,10.13   c0.55-0.1,1.09-0.22,1.63-0.34c19.33,85.59,21.76,175.86,6.67,262.17c-2.14,12.23-4.61,24.41-7.42,36.51   c-1.4,6.05-2.89,12.08-4.46,18.09c-0.14,0.53-0.28,1.05-0.41,1.58c-1.03,3.89-3.17,7.35-5.89,10.31c-0.67,0.72-1.26,1.52-1.78,2.37   c-1.65,2.71-3.8,5.09-6.52,6.73c-0.1,0.06-0.19,0.12-0.29,0.17c-6.7,4.04-9.19,13.02-5.2,19.84c1.52,2.6,3.84,4.57,6.5,5.78   c-6.08,9.83-12.97,19.24-20.51,28.03c-0.72,1.75-1.82,3.37-2.89,4.89c-3.42,4.83-6.73,9.74-10.48,14.32   c-1.69,2.07-3.46,4.08-5.26,6.06c-1.4,2.2-2.24,4.78-2.24,7.57c0,2.99,1,5.86,2.68,8.25c-4.95,3.27-10.15,6.36-15.69,9.34   c-9.15,4.92-16.46,8.17-25.67,11.4c-4.88,1.72-9.83,3.25-14.83,4.59c-2.61,0.7-5.24,1.34-7.88,1.94c-0.54-0.01-1.35-0.04-1.89-0.05   c-0.02,0-0.03-0.01-0.05-0.01c-3.46,0.98-7.03,1.48-10.63,1.72c-1.03,0.45-2.07,0.9-3.1,1.36c-3.63,3.12-5.29,7.81-4.92,12.91   c-13.97-2.49-27.65-6.55-40.73-12.31c-6.11-2.69-13.12-2.3-17.7,2.4c-0.85,0.29-1.69,0.67-2.5,1.14c-6.7,3.92-9.27,13.11-5.2,19.84   c26.29,43.4,34.12,93.7,38.64,143.85c-2.58,0.36-5.07,1.36-7.04,2.93c-4.9,3.91-6.15,9.22-5.2,15.24l11.98,75.36   c1.23,7.74,10.89,12.04,17.84,10.13c8.24-2.27,11.36-10.07,10.13-17.84c-2.23-14.02-4.46-28.04-6.68-42.06   c6-1.49,10.98-6.26,10.42-13.62c-4.16-54.71-8.98-111.5-31.25-162.03c20.98,6.19,42.73,9.31,64.85,8.94   c7.83-0.13,14.5-6.57,14.5-14.5c0-4.12-1.89-7.99-4.82-10.69c9.95-3.28,19.69-7.29,29.09-11.87c22.61-11.02,43.34-26.29,60.8-44.38   c8.17-8.47,3.09-20.61-5.77-23.89c15.91-20.26,28.56-42.88,37.76-67.14c1.74-4.58-0.12-10.07-3.44-13.72   c1.6-6.28,3.11-12.59,4.54-18.91c5.76-25.5,9.99-51.32,12.95-77.29c5.68-49.98,5.89-100.59,0.57-150.6   c-3.06-28.75-7.77-57.32-14.27-85.49C1315.89,326.75,1331.61,303.98,1332.48,276.98z"></path>
<path d="M1215.15,297.48c-1.26-11.83-6-22.77-14.14-31.54c-8.74-9.41-20.51-13.56-32.72-16.3c-0.03-0.01-0.06-0.01-0.09-0.02   c-0.8-0.17-1.57-0.47-2.28-0.86c-3.19-0.7-6.34-1.57-9.53-2.25c-0.39-0.06-0.79-0.12-1.18-0.17   c-21.02,2.15-39.13,16.14-45.65,36.56c-6.59,20.63,0.81,44.92,17.72,58.35c17.17,13.64,40.6,16.86,60.21,6.4   C1205.24,338.18,1217.31,317.74,1215.15,297.48z M1186.38,304.25c-0.29,1.56-0.74,3.06-1.16,4.6c-0.08,0.29-0.14,0.52-0.2,0.72   c-0.25,0.54-0.52,1.07-0.8,1.6c-0.66,1.25-1.4,2.45-2.19,3.63c0.1-0.21-1.25,1.59-1.62,1.98c-1.12,1.2-2.31,2.37-3.58,3.41   c0.15-0.18-1.74,1.13-2.17,1.39c-0.5,0.3-2.8,1.48-3.28,1.77c-0.54,0.15-3,0.96-3.56,1.1c-0.69,0.17-1.38,0.31-2.08,0.45   c-0.05,0.01-0.07,0.02-0.12,0.02c-0.04,0-0.07,0-0.11,0c-1.79,0.06-3.58,0.07-5.37,0.04c-0.47-0.01-0.72,0-0.85,0.02   c-0.17-0.07-0.58-0.18-1.49-0.39c-1.38-0.31-2.74-0.67-4.08-1.11c-0.53-0.17-1.06-0.36-1.58-0.55c0.01-0.03-1.34-0.68-1.82-0.94   c-1.28-0.69-2.5-1.46-3.72-2.25c-0.19-0.12-0.32-0.2-0.42-0.26c-0.04-0.03-0.06-0.05-0.11-0.09c-0.55-0.46-1.1-0.94-1.62-1.44   c-0.89-0.84-1.74-1.73-2.55-2.65c-0.22-0.28-0.76-0.94-0.86-1.1c-0.55-0.87-1.11-1.74-1.61-2.64c-0.38-0.67-0.73-1.36-1.07-2.06   c-0.06-0.13-0.11-0.24-0.16-0.33c-0.04-0.12-0.09-0.27-0.16-0.48c-0.51-1.46-0.94-2.94-1.29-4.45c-0.04-0.18-0.27-1.42-0.39-2   c-0.04-0.45-0.1-1.04-0.1-1.03c-0.06-1.98-0.1-3.94,0.07-5.92c0.01-0.07,0.02-0.13,0.04-0.21c0.19-1.01,0.42-2.01,0.69-3   c0.2-0.74,0.44-1.48,0.67-2.21c0.11-0.34,0.19-0.6,0.26-0.83c0.05-0.03,0.14-0.17,0.33-0.53c0.34-0.64,0.67-1.27,1.04-1.89   c0.11-0.19,1.08-1.64,1.4-2.16c0.26-0.31,0.56-0.7,0.57-0.71c0.66-0.7,1.3-1.41,1.99-2.08c0.58-0.57,1.19-1.11,1.8-1.64   c0.22-0.17,0.57-0.44,0.85-0.61c1.48-0.92,2.96-1.82,4.53-2.59c-0.48,0.29,2.44-0.83,3.05-1c0.01,0,0.01,0,0.02-0.01   c0.24-0.06,0.48-0.1,0.73-0.12c0.12-0.14,0.29-0.24,0.53-0.24c1.14-0.01,2.27-0.11,3.4,0.04c1.06,0.15,2.13,0.39,3.15,0.71   c2.65,0.47,5.18,1.4,7.58,2.74c0.81,0.45,1.6,0.94,2.38,1.44c1.82,0.61,2.02,0.7,3.32,1.42c0.61,0.34,1.21,0.7,1.8,1.07   c0.28,0.18,1.37,1.05,1.58,1.18c0.83,0.77,1.62,1.57,2.43,2.36c0.02,0.02,0.33,0.37,0.59,0.66c0.33,0.45,0.9,1.22,1,1.37   c0.77,1.18,1.43,2.41,2.11,3.64c0.13,0.23,0.21,0.37,0.28,0.47c0.33,0.85,0.61,1.71,0.87,2.57c0.39,1.31,0.73,2.64,0.97,3.98   c-0.11-0.43,0.09,1.88,0.1,2.52c0.01,0.7-0.05,1.4-0.05,2.1C1186.37,303.99,1186.38,304.14,1186.38,304.25z"></path>
<path d="M955.54,1016.98c-8.77-12.29-19-22.51-31.29-31.27c-6.38-4.55-16.14-1.13-19.84,5.2c-4.26,7.28-1.19,15.28,5.2,19.84   c7.23,5.15,15.74,13.66,20.89,20.87c4.54,6.36,12.64,9.41,19.84,5.2C956.63,1033.14,960.12,1023.39,955.54,1016.98z"></path>
<path d="M942.6,1060.96c-1.28-1.56-2.55-3.13-3.8-4.72c0.72,0.94,0.55,0.72-0.51-0.66c-0.61-0.8-1.22-1.61-1.82-2.42   c-2.4-3.25-4.72-6.55-6.98-9.9c-4.24-6.28-12.96-9.63-19.84-5.2c-6.25,4.03-9.74,13.11-5.2,19.84   c5.49,8.14,11.41,15.98,17.63,23.58c4.83,5.89,15.57,5.38,20.51,0C948.35,1075.2,947.75,1067.24,942.6,1060.96z"></path>
<path d="M649.14,660.29c10.95-2.56,25.34,19.25,25.34,19.25l23.55-6.11c0,0-2.49-32.18,8.16-37.5   c10.65-5.32-32.35-22.42-32.35-22.42l-24.7,14.54C649.14,628.05,638.2,662.86,649.14,660.29z"></path>
<path d="M674.48,679.54c0,0,3.26,3.98,6.65,19.84c3.39,15.86,11.29,35.32,7.6,42.05c-4.08,7.45-12.01,9-31.39,4.9   c-20.02-4.23-30.95-25.71-30.95-25.71l-20.98,22.51c0,0,5.77-0.12,9.69,9.4c3.92,9.52,6.65,55.63,61.16,103.95   c54.5,48.33,95.03,34.43,114.42,15.03c19.39-19.4-4.06-44.56-10.96-94.58s-2.2-42.65-5.02-64.36c-2.9-22.4-9.95-37.24-21.06-36.99   c-11.11,0.25-16.2,8.98-15.59,19.15c0.4,6.74-3.19,23.33-19.86,30.94c-16.28,7.43-20.68-54.17-20.68-54.17L674.48,679.54z"></path>
<path class="gdyihbbmva-st3" d="M685.21,827.96c0,0,18.4-2.75,27.25-8.38s16.26-11.42,25.98-8.13c9.72,3.3,34.47,15.33,26.98,42.69   c-1.49,5.42-10.09,16.88-39.77,8.7C695.97,854.66,685.21,827.96,685.21,827.96z"></path>
<path class="gdyihbbmva-st4" d="M685.21,827.97c0,0,19.48-3.48,27.25-8.39s14.84-11.68,23.37-8.81c8.53,2.87,21.73,25.77,6.63,32.67   c-11.61,5.3-16.46,9.4-26.9,8.49C693.16,849.98,685.21,827.97,685.21,827.97z"></path>
</g>
<g id="gdyihbbmva-Layer_1" class="gdyihbbmva-st5">
<g class="gdyihbbmva-st6">
<path class="gdyihbbmva-st7" d="M920.78,1063.07c-246.28,0-492.56,0-738.84,0c10.69-11.47,23.32-20.83,38.88-22.37    c7.37-0.73,11.95-2.15,16.73-7.47c6.4-7.13,5.09-17.96-3.99-21.17c-6-2.13-12.51-2.81-20.17-4.44c2.89-1.62,4.57-2.63,6.32-3.52    c15.52-7.91,31.44-15.14,46.46-23.92c10.89-6.37,10.34-18.81,0.12-26.77c-4.26-3.31-8.45-6.7-13.25-10.52    c2.17-1.8,3.19-2.76,4.32-3.57c14.38-10.3,29.17-20.07,43.01-31.03c8.42-6.67,14.09-16.05,13.91-27.38    c-0.51-32.01,0.99-64.31-2.83-95.95c-4.24-35.19-13.59-69.75-20.44-104.64c-1.46-7.46-1.01-15.32-2.67-22.72    c-2.97-13.21-8.25-26.01-10.16-39.33c-5.73-39.94-10.66-80.01-15.15-120.12c-1.92-17.16,0.66-19.33,18.01-24.5    c28.17-8.39,56.09-17.17,85.93-18.6c29.68-1.43,59.25-5.24,88.91-7.27c6.34-0.43,12.87,2.44,19.36,3.5    c4.29,0.7,8.79,1.77,12.96,1.14c7.94-1.2,16.66-13.44,14.72-19.11c-2.9-8.5-6.89-16.96-7.88-25.72    c-2.69-23.97-4.09-48.09-5.92-72.15c-0.57-7.58,3.36-10.63,10.71-10.54c5.28,0.06,10.57-0.55,15.86-0.9    c14.94-0.99,29.87-2.2,44.82-2.94c13.45-0.67,26.95-1.45,40.4-1.05c13.57,0.4,27.1,2.2,42.38,3.53    c-10.21,9.21-18.93,16.47-26.92,24.47c-5.51,5.53-11.29,11.43-14.72,18.28c-9.04,18.05-16.4,36.94-25.37,55.02    c-4.69,9.44-5.43,18.19-2.24,28.07c1.65,5.12,1.35,10.88,2.07,17.67c-5.96-2.2-9.41-4.09-13.07-4.72    c-11.83-2.03-23.71-3.89-35.63-5.26c-15.1-1.74-29.83-0.15-44.01,5.94c-14.56,6.25-29.06,12.8-44.04,17.86    c-21.98,7.42-41.87,19.58-55.78,36.8c-18.4,22.78-36.4,47.1-41.75,77.5c-3.15,17.88-11.8,34.98-8.24,53.8    c1.68,8.9,4.6,17.57,6.43,26.45c6.11,29.61,20.57,53.82,44.97,72c9.42,7.02,17.88,15.4,27.56,22.01    c22.67,15.47,49.09,18.76,75.48,20.82c24.05,1.87,47.74-1.26,70.06-10.83c17.05-7.31,35.66-11.88,48.73-26.78    c3.46-3.94,7.58-2.85,9.59,2.36c1.8,4.66,3.48,9.38,4.9,14.17c7.21,24.23,17.06,47.17,34.26,66.09    c9.66,10.63,19.98,20.7,30.45,30.54c23.94,22.51,52.25,29.86,83.92,21.71c17.7-4.55,31.19-27.56,26.96-44.29    c-5.2-20.55-12.05-40.74-16.26-61.48c-4.19-20.65-6.43-41.74-8.69-62.72c-1.46-13.59,3.47-27.42-1.84-41.08    c-3.43-8.82-11.61-15.51-19.71-14.31c-5.8,0.86-14.44,11.69-12.55,18.78c3.24,12.19-3.7,21.11-8.06,30.52    c-3.29,7.1-9.4,13.29-18.68,15.44c-2.61-8.8-5.5-16.83-7.3-25.1c-1.85-8.49-2.96-17.19-3.78-25.85    c-0.86-9.09,3.46-15.54,12.27-17.85c8.08-2.12,16.41-4.18,24.7-4.5c23.12-0.88,42.72-11.47,59.7-24.89    c21.17-16.73,37.61-37.62,48.43-63.79c10.26-24.82,9.18-49.85,10.44-75.13c0.67-13.53,0.12-27.12,0.12-43.66    c14.79,21.5,29.34,40.65,41.68,61.12c14.63,24.29,28.12,49.35,40.68,74.78c10.9,22.06,19.99,45.03,29.52,67.75    c3.33,7.93,11.1,13.06,18.8,11.12c8.77-2.21,10.31-4.97,7.31-17.04c-2.39-9.59-5.86-18.91-8.83-28.28    c3.62-1.69,7.19-3.03,10.43-4.94c8.56-5.06,16.77-10.76,25.53-15.45c5.13-2.75,12.18-2.7,16.36-6.26    c14.72-12.56,29.66-25.18,42.37-39.66c8.27-9.43,15.52-21.48,18.41-33.52c4.7-19.58,6.66-40.06,7.53-60.26    c0.8-18.42-0.7-37.04-2.43-55.45c-1.87-19.9-4.88-39.71-7.99-59.46c-1.76-11.2-6.69-14.6-17.62-13.87    c-12.3,0.83-24.6,1.83-36.9,2.62c-10.84,0.7-21.01-1.07-30.42-7.18c-5.8-3.77-7.19-8.64-4.99-14.36    c11.54-30.09,45.66-50.53,77.1-46.41c6.07,0.79,9.77-1.45,12.67-7.01c6.1-11.68,2.29-18.29-13.07-24.3    c-7.81-3.05-15.84-6.86-22.1-12.26c-14.78-12.76-13.91-23.99,1.66-36.12c4.17-3.24,8.6-6.36,13.36-8.58    c13.8-6.45,38.55-1.63,43.55,15.05c2.58,8.59,6.16,16.92,8.28,25.61c1.97,8.05,6.64,13.63,14.04,15.49    c3.38,0.85,9.57-1.47,11.46-4.35c4.33-6.59,9.05-13.49,4.45-22.81c-4.34-8.78,3.64-26.15,12.21-29.31    c7.15-2.64,14.21-5.66,21.52-7.73c5.75-1.63,12.55-4.2,17.62-2.52c7.96,2.64,20.64,18.76,16.5,31.19    c-4.72,14.14-10.39,28-16.37,41.66c-3.25,7.42-3.13,14,2.45,19.47c4.63,4.53,10.55,8.68,17.37,4.08    c20.13-13.59,41.1-15.16,63.85-7.08c17.82,6.33,28.52,19.09,27.62,36.18c-1.35,25.5-7.83,33.76-30.82,37.55    c-11.3,1.86-22.91,1.88-34.15,4c-3.63,0.69-8.31,4.99-9.17,8.47c-0.76,3.07,2.35,8.17,5.21,10.74c2.83,2.54,7.74,2.58,11.27,4.57    c4.01,2.26,9.4,4.69,10.86,8.37c4.19,10.63,7.86,21.73,9.65,32.98c4.06,25.56,7.92,51.25,9.83,77.03    c1.42,19.16,1.45,38.81-1.12,57.8c-3.78,27.9-10.15,55.46-15.93,83.06c-4.79,22.85-12.62,44.8-24.39,64.97    c-4.97,8.52-5.11,14.92,1.35,22.26c1.68,1.91,2.53,7.04,1.22,8.73c-13.27,17.16-27.23,33.78-40.6,50.87    c-3.24,4.14-7.86,10.18-6.87,14.07c2.71,10.62-1.85,15.18-10.33,18.81c-4.04,1.73-7.62,4.51-11.64,6.33    c-13.58,6.15-26.74,14.22-42.58,12.09c-8.96-1.21-13.15,3.94-17.12,10.62c-1.23,2.07-4.84,4.4-6.85,4.01    c-6.01-1.17-12.02-3.08-17.56-5.71c-9.15-4.34-18.59-9.18-27.83-2.48c-6.27,4.55-12.66,10.89-15.34,17.84    c-2.37,6.15,1.31,13.37,8.59,17.48c3.03,1.71,5.76,5.77,6.57,9.25c2.41,10.28,3.52,20.86,5.65,31.21    c2.84,13.8,6.55,27.43,9.19,41.27c3.34,17.48,6.19,35.06,8.72,52.68c0.35,2.42-1.63,6.35-3.74,7.73    c-6.15,4.02-8.74,10.8-6.86,18.13c4.15,16.22,7.8,32.56,11.65,48.85c-49.61,0-99.22,0-148.83,0c-4.49-5.17-8.43-11.03-13.64-15.32    c-5.23-4.3-14.24,0.19-14.68,6.83C918.85,1057.36,920.15,1060.24,920.78,1063.07z M1185.83,374.82    c16-1.63,27.58-10.77,36.93-24.92c11.2-16.94,13.73-39.78-1.11-56.34c-7.37-8.22-14.77-16.55-23.11-23.72    c-6.53-5.62-14.51-9.45-23.59-4.3c-7.67,4.36-15.32,8.77-23.15,12.85c-11.35,5.91-15.61,16.83-15.38,27.82    c0.39,18.96,4.13,37.59,17.82,52.47C1162.5,367.66,1172.2,373.55,1185.83,374.82z M952.74,1032.42c2.04-1.31,6.81-2.73,7.44-5.21    c0.63-2.46-2.2-6.89-4.75-8.88c-8.51-6.65-17.81-12.29-26.33-18.93c-6.39-4.98-11.09-2.32-15.05,2.49    c-4.88,5.92-3.85,11.98,2.51,15.41c8.74,4.73,17.76,8.96,26.79,13.13C945.66,1031.5,948.45,1031.55,952.74,1032.42z"></path>
<path d="M1096.19,1063.07c-3.85-16.29-7.5-32.63-11.65-48.85c-1.88-7.34,0.71-14.11,6.86-18.13c2.11-1.38,4.09-5.31,3.74-7.73    c-2.53-17.61-5.38-35.2-8.72-52.68c-2.65-13.84-6.35-27.46-9.19-41.27c-2.13-10.35-3.24-20.93-5.65-31.21    c-0.81-3.48-3.54-7.54-6.57-9.25c-7.29-4.1-10.96-11.33-8.59-17.48c2.68-6.95,9.07-13.29,15.34-17.84    c9.24-6.71,18.69-1.86,27.83,2.48c5.54,2.63,11.55,4.54,17.56,5.71c2.01,0.39,5.62-1.94,6.85-4.01    c3.97-6.68,8.15-11.83,17.12-10.62c15.84,2.13,29-5.93,42.58-12.09c4.01-1.82,7.6-4.6,11.64-6.33    c8.48-3.63,13.04-8.19,10.33-18.81c-0.99-3.89,3.63-9.93,6.87-14.07c13.36-17.09,27.33-33.71,40.6-50.87    c1.31-1.69,0.46-6.82-1.22-8.73c-6.46-7.35-6.32-13.74-1.35-22.26c11.76-20.17,19.59-42.11,24.39-64.97    c5.79-27.6,12.16-55.16,15.93-83.06c2.57-18.99,2.54-38.64,1.12-57.8c-1.91-25.79-5.77-51.47-9.83-77.03    c-1.79-11.25-5.45-22.36-9.65-32.98c-1.45-3.68-6.84-6.12-10.86-8.37c-3.53-1.98-8.44-2.02-11.27-4.57    c-2.86-2.58-5.97-7.68-5.21-10.74c0.86-3.48,5.54-7.78,9.17-8.47c11.23-2.13,22.85-2.14,34.15-4    c22.98-3.79,29.47-12.05,30.82-37.55c0.9-17.09-9.8-29.85-27.62-36.18c-22.75-8.08-43.73-6.51-63.85,7.08    c-6.82,4.6-12.74,0.46-17.37-4.08c-5.59-5.47-5.71-12.05-2.45-19.47c5.99-13.66,11.65-27.52,16.37-41.66    c4.15-12.42-8.54-28.55-16.5-31.19c-5.07-1.68-11.87,0.89-17.62,2.52c-7.32,2.07-14.37,5.09-21.52,7.73    c-8.57,3.17-16.55,20.53-12.21,29.31c4.61,9.31-0.12,16.22-4.45,22.81c-1.89,2.88-8.08,5.2-11.46,4.35    c-7.4-1.86-12.07-7.44-14.04-15.49c-2.13-8.69-5.71-17.01-8.28-25.61c-5-16.67-29.75-21.5-43.55-15.05    c-4.76,2.22-9.19,5.34-13.36,8.58c-15.57,12.13-16.44,23.36-1.66,36.12c6.26,5.4,14.3,9.21,22.1,12.26    c15.36,6.01,19.17,12.62,13.07,24.3c-2.9,5.56-6.6,7.81-12.67,7.01c-31.44-4.11-65.56,16.32-77.1,46.41    c-2.19,5.72-0.8,10.6,4.99,14.36c9.41,6.11,19.58,7.88,30.42,7.18c12.31-0.79,24.6-1.8,36.9-2.62    c10.94-0.73,15.86,2.66,17.62,13.87c3.11,19.75,6.12,39.56,7.99,59.46c1.73,18.41,3.23,37.03,2.43,55.45    c-0.88,20.2-2.83,40.68-7.53,60.26c-2.89,12.04-10.14,24.09-18.41,33.52c-12.71,14.49-27.65,27.11-42.37,39.66    c-4.18,3.57-11.24,3.52-16.36,6.26c-8.75,4.69-16.97,10.38-25.53,15.45c-3.24,1.91-6.81,3.25-10.43,4.94    c2.97,9.37,6.44,18.69,8.83,28.28c3.01,12.07,1.46,14.83-7.31,17.04c-7.7,1.94-15.47-3.19-18.8-11.12    c-9.53-22.72-18.62-45.69-29.52-67.75c-12.56-25.43-26.05-50.49-40.68-74.78c-12.34-20.48-26.89-39.62-41.68-61.12    c0,16.53,0.55,30.13-0.12,43.66c-1.26,25.28-0.18,50.31-10.44,75.13c-10.82,26.17-27.26,47.06-48.43,63.79    c-16.98,13.42-36.58,24.01-59.7,24.89c-8.29,0.32-16.61,2.38-24.7,4.5c-8.81,2.31-13.13,8.76-12.27,17.85    c0.82,8.67,1.93,17.36,3.78,25.85c1.8,8.27,4.69,16.3,7.3,25.1c9.28-2.16,15.39-8.35,18.68-15.44    c4.36-9.41,11.31-18.33,8.06-30.52c-1.88-7.09,6.75-17.92,12.55-18.78c8.1-1.2,16.27,5.49,19.71,14.31    c5.31,13.65,0.38,27.49,1.84,41.08c2.26,20.99,4.5,42.07,8.69,62.72c4.21,20.74,11.05,40.93,16.26,61.48    c4.24,16.73-9.26,39.74-26.96,44.29c-31.67,8.15-59.98,0.79-83.92-21.71c-10.47-9.84-20.79-19.91-30.45-30.54    c-17.2-18.93-27.05-41.86-34.26-66.09c-1.42-4.79-3.1-9.51-4.9-14.17c-2.01-5.2-6.13-6.3-9.59-2.36    c-13.07,14.9-31.68,19.47-48.73,26.78c-22.33,9.57-46.01,12.71-70.06,10.83c-26.4-2.06-52.81-5.35-75.48-20.82    c-9.68-6.61-18.14-14.99-27.56-22.01c-24.41-18.18-38.87-42.39-44.97-72c-1.83-8.88-4.75-17.54-6.43-26.45    c-3.56-18.82,5.09-35.92,8.24-53.8c5.35-30.4,23.35-54.72,41.75-77.5c13.92-17.23,33.8-29.39,55.78-36.8    c14.99-5.05,29.48-11.61,44.04-17.86c14.18-6.09,28.9-7.67,44.01-5.94c11.92,1.37,23.8,3.23,35.63,5.26    c3.67,0.63,7.12,2.52,13.07,4.72c-0.72-6.79-0.42-12.55-2.07-17.67c-3.19-9.88-2.45-18.63,2.24-28.07    c8.97-18.09,16.33-36.98,25.37-55.02c3.43-6.85,9.21-12.75,14.72-18.28c7.99-8,16.7-15.27,26.92-24.47    c-15.29-1.34-28.82-3.13-42.38-3.53c-13.44-0.4-26.94,0.38-40.4,1.05c-14.95,0.74-29.88,1.95-44.82,2.94    c-5.28,0.35-10.58,0.96-15.86,0.9c-7.35-0.09-11.28,2.96-10.71,10.54c1.82,24.07,3.22,48.18,5.92,72.15    c0.98,8.76,4.98,17.22,7.88,25.72c1.93,5.67-6.78,17.91-14.72,19.11c-4.17,0.63-8.68-0.44-12.96-1.14    c-6.49-1.07-13.02-3.94-19.36-3.5c-29.67,2.03-59.23,5.84-88.91,7.27c-29.84,1.43-57.76,10.21-85.93,18.6    c-17.35,5.17-19.93,7.34-18.01,24.5c4.49,40.1,9.42,80.17,15.15,120.12c1.91,13.32,7.18,26.12,10.16,39.33    c1.67,7.4,1.21,15.26,2.67,22.72c6.84,34.89,16.19,69.45,20.44,104.64c3.82,31.64,2.32,63.94,2.83,95.95    c0.18,11.32-5.49,20.71-13.91,27.38c-13.85,10.96-28.64,20.74-43.01,31.03c-1.13,0.81-2.16,1.77-4.32,3.57    c4.8,3.81,8.99,7.2,13.25,10.52c10.22,7.96,10.77,20.4-0.12,26.77c-15.01,8.78-30.94,16.01-46.46,23.92    c-1.74,0.89-3.43,1.9-6.32,3.52c7.65,1.62,14.16,2.31,20.17,4.44c9.08,3.21,10.39,14.04,3.99,21.17    c-4.78,5.32-9.36,6.75-16.73,7.47c-15.57,1.54-28.19,10.9-38.88,22.37c-11.22,0-22.44,0-33.66,0    c9.38-12.04,18.76-24.08,28.68-36.81c-0.25-0.22-2.67-1.83-4.46-3.97c-10.38-12.39-7.86-20.06,4.75-25.53    c18.09-7.84,35.91-16.3,53.77-24.64c3.02-1.41,5.69-3.56,10.19-6.45c-5.36-3.05-9.19-4.98-12.76-7.31    c-5.15-3.37-10.82-6.34-15-10.71c-7.16-7.47-2.75-18.49,7.11-20.97c18.05-4.55,33.5-14,46.84-26.93c0.84-0.81,1.26-2.19,2.2-2.74    c14.91-8.58,17.26-23.22,17.69-38.24c0.32-11.06-1-22.17-1.56-33.25c-0.06-1.14-0.43-2.63,0.13-3.37    c11.36-14.91,0.27-29.69-1.22-44.08c-2.11-20.34-8.51-40.23-12.9-60.35c-7.34-33.63-15.62-67.11-21.45-101    c-4.98-28.97-7.1-58.44-10.43-87.69c-1.77-15.48-3.07-31.02-5.24-46.44c-2.95-21,0.47-26.16,20.5-31.27    c20.98-5.36,41.53-12.77,62.74-16.76c26.24-4.93,52.9-7.91,79.49-10.5c20.75-2.02,41.67-2.21,62.52-3.1    c4.29-0.18,7.42-0.66,7.08-6.34c-1.41-23.7-2.27-47.43-3.88-71.12c-0.59-8.69-2.23-17.39-4.22-25.9    c-2.4-10.25,3.38-18.12,13.87-18.74c16.12-0.95,32.19-2.67,48.31-3.6c12.01-0.7,24.07-1.14,36.09-0.89    c23.16,0.47,46.35,0.99,69.46,2.5c16.57,1.08,34.58,0.23,49.21,6.58c23.58,10.24,49.25,6.27,72.22,15.06    c15.96,6.11,31.06,14.97,45.62,24.1c17.96,11.25,31.36,27.88,39.78,46.79c6.45,14.49,21,18.85,29.25,30.63    c15.63,22.3,33.6,42.99,48.93,65.49c14.69,21.56,27.44,44.45,40.7,66.96c6.77,11.5,12.78,23.46,19.36,35.61    c14.6-6.36,27.79-12.55,41.31-17.89c16.83-6.65,28.58-19.35,39.96-32.46c5.49-6.32,11.72-12.88,14.5-20.47    c4.58-12.55,7.9-25.87,9.49-39.13c3.44-28.7,5.34-57.59,0.33-86.39c-1.56-8.94-2.89-17.94-4.96-26.76    c-1.68-7.14-5.69-10.01-14.12-9.18c-22.1,2.19-43.49-1.17-63.04-12.75c-16.15-9.56-19.4-20.02-15.82-39.37    c5.54-29.94,26.43-45.78,50.78-58.67c11.4-6.03,11.9-5.9,3.06-15.43c-16.09-17.36-16.46-40.91,1.29-60.62    c24.78-27.5,70.25-36.74,99.79-4.92c0.78,0.84,1.74,1.51,3.79,3.27c10.91-20.12,32.02-22.27,50.39-29.17    c20.06-7.53,33.51-3.6,47.07,14.39c9.16,12.15,18.48,24.8,16.77,41.58c-0.25,2.51-0.59,5.04-1.25,7.46    c-1.52,5.61-3.27,11.17-4.99,16.97c11.01,0.84,21.17,0.97,31.12,2.51c17.25,2.67,33.41,7.83,47.35,19.54    c16.73,14.04,27.47,48.62,19.57,67.57c-2.11,5.06-3.49,10.42-5.49,15.53c-7.31,18.6-23.32,24.47-42.14,27.03    c3.48,14.05,7.57,26.93,9.76,40.13c4.9,29.57,10.16,59.19,12.88,89c3.52,38.6-2.87,76.63-11.6,114.21    c-3.89,16.77-7.29,33.68-11.93,50.24c-2.33,8.32-7.16,15.91-10.31,24.04c-0.74,1.92-0.13,5.79,1.3,6.9    c8.89,6.91,6,15.2,1.78,22.16c-10.48,17.27-22.24,33.77-32.9,50.94c-1.67,2.69-1.75,8.22-0.05,10.77    c3.42,5.13,2.58,9.01,0.04,13.85c-9.45,18-26.39,27.43-42.81,37.11c-13.58,8.01-28.1,14.41-41.89,22.07    c-2.94,1.63-5.42,5.31-6.66,8.59c-4.04,10.7-12.64,13.25-22.53,13.39c-8.25,0.11-16.5-0.67-24.76-0.69    c-2.99-0.01-6.52,0.2-8.9,1.73c-10.8,6.94-9.69,2.49-4.53,24.45c4.5,19.12,8.44,38.38,12.67,57.57c0.69,3.13,1.2,6.41,2.54,9.27    c3.38,7.17,4.69,13.49,3.18,22.26c-1.66,9.69,2.79,20.71,5.71,30.83c3.04,10.52,1.91,14.96-6.73,21.57    c-1.95,1.49-3.22,5.6-2.81,8.19c1.82,11.33,4.37,22.54,6.65,33.8C1115.09,1063.07,1105.64,1063.07,1096.19,1063.07z     M642.16,622.75c-1.15-12-1.83-24.07-3.53-35.99c-4.03-28.23-12.44-54.69-34.32-74.64c-6.26-5.71-12.96-11.8-20.6-14.91    c-12.06-4.92-25.01-7.8-37.73-10.97c-15.1-3.76-30.3-7.74-46.02-3.16c-5.91,1.72-11.84,4.93-17.72,4.85    c-10.95-0.14-20.13,2.57-29.96,7.79c-22.39,11.88-43.97,24.54-58.01,46.21c-9.98,15.4-18.78,31.7-26.61,48.3    c-4.32,9.15-7.29,19.69-7.72,29.74c-0.53,12.53-0.32,25.03,2.2,37.99c6.63,34.18,24.71,60.02,51.28,80.36    c10.47,8.02,23.81,12.19,35.45,18.78c17.48,9.9,36.79,9.92,55.54,9.17c35.72-1.42,66.67-14.42,92.2-40.89    c12.83-13.3,22.92-28.2,31.58-43.86C638.06,663.68,641.24,643.36,642.16,622.75z M669.11,623.69c3.11,0.81,6.11,1.16,8.72,2.35    c30.07,13.72,58.86,6.95,86.34-6.91c18.26-9.21,31.16-25.46,43.68-41.25c5.14-6.49,8.82-14.73,11.14-22.76    c5.29-18.33,7.01-36.93,7.27-56.37c0.47-35.02-2.01-68.46-17.77-100.44c-9.76-19.8-24.88-34.96-42.4-46.04    c-22.83-14.44-49.26-20.47-76.77-15.99c-7.43,1.21-14.44,4.85-21.77,6.9c-16.38,4.58-27.37,16.8-37.88,28.57    c-7.62,8.54-12.37,19.83-17.52,30.33c-4,8.14-8.04,16.7-9.6,25.52c-2.82,15.92-3.84,31.99,1.87,47.98    c1.81,5.06,3.44,8.91,8.12,11.44c19.37,10.49,30.35,28.53,38.32,47.57C662.56,562.57,668.86,592.18,669.11,623.69z M765.41,852.14    c-0.8-2.43-2.31-4.7-2.14-6.85c1.24-15.56-4.67-25.1-20.05-30.85c-11.12-4.16-20.82-4.74-29.51,3.27    c-2.57,2.37-6.75,3.1-10.28,4.32c-6.13,2.12-12.33,4.03-18.97,6.17C714.9,871.22,747.32,873.87,765.41,852.14z M630.61,730.09    c2.1,1.4,5.42,2.81,7.64,5.23c12.3,13.41,27.71,13.14,43.74,10.47c5.63-0.94,8.32-4.62,7.31-10.03    c-2.86-15.44-5.36-31.02-9.71-46.05c-1.27-4.38-7.85-8.6-12.82-10.02c-3.13-0.89-9.47,2.52-11.45,5.78    C646.67,699.67,639.09,714.52,630.61,730.09z"></path>
<path d="M920.78,1063.07c-0.63-2.83-1.93-5.71-1.75-8.49c0.44-6.64,9.45-11.14,14.68-6.83c5.22,4.29,9.15,10.15,13.64,15.32    C938.5,1063.07,929.64,1063.07,920.78,1063.07z"></path>
<path d="M1185.83,374.82c-13.63-1.27-23.33-7.16-31.59-16.14c-13.68-14.88-17.42-33.51-17.82-52.47    c-0.23-10.99,4.03-21.91,15.38-27.82c7.82-4.07,15.47-8.49,23.15-12.85c9.08-5.16,17.06-1.32,23.59,4.3    c8.34,7.17,15.74,15.5,23.11,23.72c14.83,16.56,12.31,39.4,1.11,56.34C1213.41,364.05,1201.83,373.18,1185.83,374.82z     M1207.6,320.11c-0.26-1.16-0.33-3.02-1.07-4.57c-4.85-10.17-12.95-17.07-22.94-21.76c-1.89-0.89-4.86-1.04-6.71-0.18    c-12.14,5.61-18.08,20.51-13.06,33.17c2.03,5.13,4.58,10.39,8.16,14.47c2.38,2.71,7.03,4.83,10.63,4.8    C1194.5,345.92,1207.25,332.43,1207.6,320.11z"></path>
<path d="M952.74,1032.42c-4.29-0.87-7.08-0.92-9.4-1.99c-9.03-4.17-18.04-8.41-26.79-13.13c-6.36-3.44-7.39-9.5-2.51-15.41    c3.97-4.81,8.66-7.47,15.05-2.49c8.52,6.64,17.82,12.27,26.33,18.93c2.54,1.99,5.37,6.41,4.75,8.88    C959.54,1029.68,954.78,1031.11,952.74,1032.42z"></path>
<path class="gdyihbbmva-st7" d="M642.16,622.75c-0.93,20.61-4.1,40.94-13.97,58.78c-8.66,15.65-18.75,30.56-31.58,43.86    c-25.54,26.46-56.48,39.47-92.2,40.89c-18.75,0.74-38.06,0.73-55.54-9.17c-11.65-6.6-24.98-10.77-35.45-18.78    c-26.56-20.34-44.65-46.18-51.28-80.36c-2.51-12.96-2.73-25.46-2.2-37.99c0.43-10.05,3.4-20.59,7.72-29.74    c7.83-16.6,16.63-32.9,26.61-48.3c14.04-21.67,35.62-34.33,58.01-46.21c9.83-5.22,19.01-7.93,29.96-7.79    c5.89,0.07,11.81-3.13,17.72-4.85c15.72-4.58,30.92-0.61,46.02,3.16c12.72,3.17,25.67,6.04,37.73,10.97    c7.64,3.12,14.34,9.2,20.6,14.91c21.88,19.96,30.29,46.41,34.32,74.64C640.33,598.68,641.02,610.75,642.16,622.75z M542.77,632.01    c14.31,0.62,24.47-6.06,24.9-16.38c0.5-12.13-10.44-25.38-21.54-26.09c-12.39-0.79-24.92,11.45-25.58,24.97    C520.02,625.47,527.48,631.35,542.77,632.01z"></path>
<path class="gdyihbbmva-st7" d="M669.11,623.69c-0.25-31.51-6.56-61.12-18.26-89.09c-7.97-19.04-18.95-37.08-38.32-47.57    c-4.68-2.54-6.32-6.38-8.12-11.44c-5.71-15.99-4.69-32.07-1.87-47.98c1.56-8.81,5.6-17.37,9.6-25.52    c5.16-10.5,9.9-21.79,17.52-30.33c10.51-11.78,21.51-23.99,37.88-28.57c7.33-2.05,14.34-5.69,21.77-6.9    c27.51-4.48,53.95,1.55,76.77,15.99c17.52,11.08,32.64,26.24,42.4,46.04c15.76,31.98,18.24,65.42,17.77,100.44    c-0.26,19.44-1.98,38.05-7.27,56.37c-2.32,8.03-5.99,16.27-11.14,22.76c-12.52,15.79-25.42,32.04-43.68,41.25    c-27.48,13.85-56.27,20.63-86.34,6.91C675.22,624.85,672.22,624.5,669.11,623.69z M685.01,540.39c1.76,0.17,3.82,1.03,5.22,0.4    c4.6-2.07,11.17-3.66,12.84-7.33c2.13-4.66,2.24-12.52-0.44-16.56c-3.66-5.5-10.25-10.51-16.56-12.36    c-6.12-1.79-14.37-1.11-20.07,1.73c-6.82,3.4-5.73,11.53-4.06,18.39C664.55,535.46,671.61,540.25,685.01,540.39z"></path>
<path class="gdyihbbmva-st8" d="M765.41,852.14c-18.09,21.73-50.51,19.08-80.95-23.94c6.64-2.15,12.84-4.06,18.97-6.17    c3.53-1.22,7.71-1.94,10.28-4.32c8.69-8.01,18.38-7.43,29.51-3.27c15.38,5.75,21.29,15.29,20.05,30.85    C763.1,847.44,764.61,849.71,765.41,852.14z"></path>
<path class="gdyihbbmva-st7" d="M630.61,730.09c8.48-15.56,16.06-30.42,24.71-44.62c1.98-3.26,8.32-6.67,11.45-5.78    c4.97,1.42,11.55,5.64,12.82,10.02c4.35,15.03,6.85,30.61,9.71,46.05c1,5.41-1.68,9.1-7.31,10.03    c-16.03,2.67-31.44,2.94-43.74-10.47C636.03,732.9,632.7,731.49,630.61,730.09z"></path>
<path class="gdyihbbmva-st7" d="M1207.6,320.11c-0.35,12.31-13.1,25.81-24.98,25.93c-3.61,0.04-8.25-2.09-10.63-4.8    c-3.58-4.08-6.13-9.34-8.16-14.47c-5.02-12.66,0.93-27.56,13.06-33.17c1.85-0.86,4.82-0.7,6.71,0.18    c9.99,4.69,18.09,11.59,22.94,21.76C1207.27,317.09,1207.34,318.96,1207.6,320.11z"></path>
<path d="M542.77,632.01c-15.29-0.66-22.74-6.53-22.21-17.5c0.65-13.52,13.19-25.75,25.58-24.97c11.1,0.7,22.04,13.96,21.54,26.09    C567.24,625.94,557.08,632.62,542.77,632.01z"></path>
<path d="M685.01,540.39c-13.4-0.15-20.46-4.93-23.08-15.74c-1.67-6.86-2.76-14.99,4.06-18.39c5.7-2.84,13.95-3.52,20.07-1.73    c6.32,1.85,12.91,6.86,16.56,12.36c2.68,4.04,2.57,11.9,0.44,16.56c-1.68,3.67-8.25,5.26-12.84,7.33    C688.83,541.42,686.77,540.56,685.01,540.39z"></path>
</g>
</g>
<g id="gdyihbbmva-Layer_4">
</g>
<g id="gdyihbbmva-Layer_5">
<g>
<path class="gdyihbbmva-st14" d="M162.88,180.37c0,0-0.67-93.33,35.38-115.73"></path>
<line class="gdyihbbmva-st14" x1="158.34" y1="178.96" x2="104.33" y2="47.16"></line>
<path class="gdyihbbmva-st14" d="M150.47,186.85c0,0-67.77-43.8-112.65-35.27"></path>
<path class="gdyihbbmva-st14" d="M145.54,197.23c0,0-72.43-5.92-92.75,45.62"></path>
<path class="gdyihbbmva-st14" d="M175.03,178.42c0,0,54.16-83.59,100.81-61.48"></path>
</g>
<g>
<path class="gdyihbbmva-st15" d="M166.78,184.11c0,0-20.96-99.21,4.33-143.2"></path>
<line class="gdyihbbmva-st15" x1="162.04" y1="184.03" x2="58.13" y2="89"></line>
<path class="gdyihbbmva-st15" d="M156.43,193.83c0,0-78.83-14.09-118.58,9.86"></path>
<path class="gdyihbbmva-st15" d="M154.29,205.21c0,0-55.98,28.32-62.18,73.97"></path>
<path class="gdyihbbmva-st15" d="M178.02,178.8c0,0,20.06-82.64,67.78-107.17"></path>
</g>
<g id="gdyihbbmva-XMLID_00000008126047903489584890000016128196608609050782_">
<g>
<path class="gdyihbbmva-st11" d="M745.93,296.54c6.76,1.84,11.49,7.83,11.69,14.82c0.16,5.73-3.54,7.98-8.83,5.73     c-53.68-22.99-123.43,14.19-183.9,59.36l-0.82-1.1c-7.45-23.54-3.5-49.09,0.95-73.48c3.26-17.85,7.82-33.62,22.19-44.89l0.4-1.5     C646.71,270.14,701.95,284.6,745.93,296.54z"></path>
<path class="gdyihbbmva-st12" d="M587.61,255.49l-0.4,1.5c-14.37,11.27-18.93,27.03-22.19,44.89c-4.46,24.39-8.41,49.94-0.95,73.48l0.82,1.1     c-30.18,22.54-58.06,47.08-80.5,67.13c-19.71,17.62-38.45,35.16-56.02,52.38c-24.02-76.22-15.19-201.6,25.29-269.52l0.63-2.56     C498.83,233.89,544.26,244.73,587.61,255.49z"></path>
<path class="gdyihbbmva-st11" d="M454.28,223.85l0,0.02l-0.63,2.56c-40.48,67.93-49.31,193.3-25.29,269.52l0,0.02     c-44.77,43.92-81.94,85.82-108,121.63c-21.51-67.93-34.8-159.53-35.72-230.95c-0.67-51.73,17.96-146.88,44.34-188.16l0.14-0.74     C368.18,205.11,410.81,214.09,454.28,223.85z"></path>
<path class="gdyihbbmva-st12" d="M329.14,197.76l-0.14,0.74c-26.38,41.28-45.02,136.43-44.34,188.16c0.92,71.42,14.21,163.02,35.72,230.95     c-23.54,32.33-38.03,59.7-40.9,79.09c-5.27,35.49-50.98-146.21-65.65-200.73c-11.41-42.37-21-85.75-29.63-129.38     c-2.1-60.04,14.4-129.74,37.86-185.38C251.82,184.3,288.54,190.13,329.14,197.76z"></path>
<path class="gdyihbbmva-st11" d="M178.01,178.8c11.96-0.25,26.83,0.62,44.04,2.4c-23.45,55.64-39.96,125.34-37.86,185.38     c-10.36-52.3-19.34-105-28.31-156.86C153.27,194.64,156.68,179.23,178.01,178.8z"></path>
</g>
<g>
<path class="gdyihbbmva-st16" d="M428.37,495.96c17.57-17.22,36.31-34.76,56.02-52.38c22.44-20.04,50.32-44.59,80.5-67.13     c60.47-45.17,130.22-82.34,183.9-59.36c5.29,2.24,8.99,0,8.83-5.73c-0.2-6.99-4.93-12.98-11.69-14.82     c-43.98-11.94-99.22-26.4-158.31-41.05c-43.35-10.76-88.79-21.6-133.33-31.62l0-0.02c-43.47-9.77-86.09-18.75-125.14-26.09     c-40.6-7.63-77.32-13.46-107.09-16.56c-17.21-1.78-32.07-2.65-44.04-2.4c-21.34,0.43-24.74,15.84-22.13,30.92     c8.97,51.86,17.95,104.56,28.31,156.86c8.63,43.63,18.22,87.01,29.63,129.38c14.67,54.53,60.38,236.22,65.65,200.73     c2.87-19.39,17.36-46.76,40.9-79.09c26.06-35.81,63.23-77.71,108-121.63"></path>
<path class="gdyihbbmva-st16" d="M587.21,256.99c-14.37,11.27-18.93,27.03-22.19,44.89c-4.46,24.39-8.41,49.94-0.95,73.48"></path>
<path class="gdyihbbmva-st16" d="M453.65,226.44c-40.48,67.93-49.31,193.3-25.29,269.52l0,0.02"></path>
<path class="gdyihbbmva-st16" d="M328.99,198.5c-26.38,41.28-45.02,136.43-44.34,188.16c0.92,71.42,14.21,163.02,35.72,230.95"></path>
<path class="gdyihbbmva-st16" d="M222.05,181.2c-23.45,55.64-39.96,125.34-37.86,185.38c0,0.04,0,0.07,0,0.11"></path>
</g>
</g>
</g>
</svg>